<mxfile host="app.diagrams.net" modified="2022-05-06T22:08:46.029Z" agent="5.0 (Windows NT 10.0; Win64; x64) AppleWebKit/537.36 (KHTML, like Gecko) Chrome/100.0.4896.127 Safari/537.36" etag="gvKWAVi2P8b1gd-Qj7jc" version="16.6.1" type="github">
  <diagram id="XkuEfvrNN8qvytdrORPO" name="Page-1">
    <mxGraphModel dx="477" dy="804" grid="1" gridSize="10" guides="1" tooltips="1" connect="1" arrows="1" fold="1" page="1" pageScale="1" pageWidth="827" pageHeight="1169" math="0" shadow="0">
      <root>
        <mxCell id="0" />
        <mxCell id="1" parent="0" />
        <mxCell id="HKVD6gNdquyJxxmTIWlP-1" value="" style="endArrow=none;html=1;rounded=0;fillColor=#d5e8d4;strokeColor=#82b366;strokeWidth=7;" edge="1" parent="1">
          <mxGeometry width="50" height="50" relative="1" as="geometry">
            <mxPoint x="10" y="10" as="sourcePoint" />
            <mxPoint x="440" y="10" as="targetPoint" />
          </mxGeometry>
        </mxCell>
        <mxCell id="HKVD6gNdquyJxxmTIWlP-2" value="" style="endArrow=none;html=1;rounded=0;fillColor=#d5e8d4;strokeColor=#82b366;strokeWidth=7;" edge="1" parent="1">
          <mxGeometry width="50" height="50" relative="1" as="geometry">
            <mxPoint x="440" y="320" as="sourcePoint" />
            <mxPoint x="440" y="10" as="targetPoint" />
          </mxGeometry>
        </mxCell>
        <mxCell id="HKVD6gNdquyJxxmTIWlP-3" value="&lt;font style=&quot;font-size: 24px&quot;&gt;&lt;span class=&quot;pl-k&quot; style=&quot;box-sizing: border-box ; font-family: , , &amp;#34;sf mono&amp;#34; , &amp;#34;menlo&amp;#34; , &amp;#34;consolas&amp;#34; , &amp;#34;liberation mono&amp;#34; , monospace ; background-color: rgb(255 , 255 , 255)&quot;&gt;class&lt;/span&gt;&lt;span style=&quot;color: rgb(36 , 41 , 47) ; font-family: , , &amp;#34;sf mono&amp;#34; , &amp;#34;menlo&amp;#34; , &amp;#34;consolas&amp;#34; , &amp;#34;liberation mono&amp;#34; , monospace ; background-color: rgb(255 , 255 , 255)&quot;&gt;&amp;nbsp;&lt;/span&gt;&lt;/font&gt;&lt;font color=&quot;#24292f&quot;&gt;&lt;span style=&quot;font-size: 24px&quot;&gt;Stack&lt;/span&gt;&lt;/font&gt;" style="text;html=1;align=center;verticalAlign=middle;resizable=0;points=[];autosize=1;strokeColor=none;fillColor=none;" vertex="1" parent="1">
          <mxGeometry x="35" y="20" width="140" height="20" as="geometry" />
        </mxCell>
        <mxCell id="HKVD6gNdquyJxxmTIWlP-4" value="" style="endArrow=none;html=1;rounded=0;fillColor=#d5e8d4;strokeColor=#82b366;strokeWidth=5;" edge="1" parent="1">
          <mxGeometry width="50" height="50" relative="1" as="geometry">
            <mxPoint x="10" y="50" as="sourcePoint" />
            <mxPoint x="210" y="50" as="targetPoint" />
          </mxGeometry>
        </mxCell>
        <mxCell id="HKVD6gNdquyJxxmTIWlP-5" value="" style="endArrow=none;html=1;rounded=0;fillColor=#d5e8d4;strokeColor=#82b366;strokeWidth=5;" edge="1" parent="1">
          <mxGeometry width="50" height="50" relative="1" as="geometry">
            <mxPoint x="210" y="20" as="sourcePoint" />
            <mxPoint x="210" y="50" as="targetPoint" />
          </mxGeometry>
        </mxCell>
        <mxCell id="HKVD6gNdquyJxxmTIWlP-6" value="&lt;font style=&quot;font-size: 24px&quot;&gt;&lt;span class=&quot;pl-k&quot; style=&quot;box-sizing: border-box ; font-family: , , &amp;#34;sf mono&amp;#34; , &amp;#34;menlo&amp;#34; , &amp;#34;consolas&amp;#34; , &amp;#34;liberation mono&amp;#34; , monospace ; background-color: rgb(255 , 255 , 255)&quot;&gt;class&lt;/span&gt;&lt;span style=&quot;color: rgb(36 , 41 , 47) ; font-family: , , &amp;#34;sf mono&amp;#34; , &amp;#34;menlo&amp;#34; , &amp;#34;consolas&amp;#34; , &amp;#34;liberation mono&amp;#34; , monospace ; background-color: rgb(255 , 255 , 255)&quot;&gt; &lt;/span&gt;&lt;span class=&quot;pl-en&quot; style=&quot;box-sizing: border-box ; font-family: , , &amp;#34;sf mono&amp;#34; , &amp;#34;menlo&amp;#34; , &amp;#34;consolas&amp;#34; , &amp;#34;liberation mono&amp;#34; , monospace ; background-color: rgb(255 , 255 , 255)&quot;&gt;&lt;span class=&quot;pl-token&quot; style=&quot;box-sizing: border-box&quot;&gt;Program&lt;/span&gt;&lt;/span&gt;&lt;/font&gt;" style="text;html=1;align=center;verticalAlign=middle;resizable=0;points=[];autosize=1;strokeColor=none;fillColor=none;" vertex="1" parent="1">
          <mxGeometry x="10" y="130" width="170" height="20" as="geometry" />
        </mxCell>
        <mxCell id="HKVD6gNdquyJxxmTIWlP-7" value="" style="endArrow=none;html=1;rounded=0;fillColor=#f8cecc;strokeColor=#b85450;" edge="1" parent="1">
          <mxGeometry width="50" height="50" relative="1" as="geometry">
            <mxPoint y="160" as="sourcePoint" />
            <mxPoint x="200" y="160" as="targetPoint" />
          </mxGeometry>
        </mxCell>
        <mxCell id="HKVD6gNdquyJxxmTIWlP-8" value="" style="endArrow=none;html=1;rounded=0;fillColor=#f8cecc;strokeColor=#b85450;" edge="1" parent="1">
          <mxGeometry width="50" height="50" relative="1" as="geometry">
            <mxPoint x="200" y="120" as="sourcePoint" />
            <mxPoint x="200" y="160" as="targetPoint" />
          </mxGeometry>
        </mxCell>
        <mxCell id="HKVD6gNdquyJxxmTIWlP-9" value="&lt;span style=&quot;font-size: 12px&quot;&gt;public StackException(string msg) : base(msg)&amp;nbsp;&lt;/span&gt;" style="text;html=1;align=center;verticalAlign=middle;resizable=0;points=[];autosize=1;strokeColor=none;fillColor=none;fontSize=24;" vertex="1" parent="1">
          <mxGeometry y="190" width="270" height="40" as="geometry" />
        </mxCell>
        <mxCell id="HKVD6gNdquyJxxmTIWlP-10" style="edgeStyle=orthogonalEdgeStyle;rounded=0;orthogonalLoop=1;jettySize=auto;html=1;exitX=0.5;exitY=1;exitDx=0;exitDy=0;fontSize=24;entryX=0.5;entryY=0;entryDx=0;entryDy=0;" edge="1" parent="1" source="HKVD6gNdquyJxxmTIWlP-11" target="HKVD6gNdquyJxxmTIWlP-15">
          <mxGeometry relative="1" as="geometry">
            <mxPoint x="115" y="320" as="targetPoint" />
          </mxGeometry>
        </mxCell>
        <mxCell id="HKVD6gNdquyJxxmTIWlP-11" value="Початок" style="ellipse;whiteSpace=wrap;html=1;fontSize=16;strokeWidth=1;" vertex="1" parent="1">
          <mxGeometry x="72.50000000000023" y="249.9999999999999" width="85" height="40" as="geometry" />
        </mxCell>
        <mxCell id="HKVD6gNdquyJxxmTIWlP-22" style="edgeStyle=orthogonalEdgeStyle;rounded=0;orthogonalLoop=1;jettySize=auto;html=1;exitX=0.5;exitY=1;exitDx=0;exitDy=0;entryX=0.5;entryY=0;entryDx=0;entryDy=0;strokeWidth=1;" edge="1" parent="1" source="HKVD6gNdquyJxxmTIWlP-15" target="HKVD6gNdquyJxxmTIWlP-18">
          <mxGeometry relative="1" as="geometry" />
        </mxCell>
        <mxCell id="HKVD6gNdquyJxxmTIWlP-15" value="" style="rounded=1;whiteSpace=wrap;html=1;sketch=0;fontSize=24;" vertex="1" parent="1">
          <mxGeometry x="32.5" y="340" width="165" height="40" as="geometry" />
        </mxCell>
        <mxCell id="HKVD6gNdquyJxxmTIWlP-18" value="кінець" style="ellipse;whiteSpace=wrap;html=1;rounded=1;sketch=0;fontSize=12;" vertex="1" parent="1">
          <mxGeometry x="67.33" y="430" width="95.35" height="30" as="geometry" />
        </mxCell>
        <mxCell id="HKVD6gNdquyJxxmTIWlP-19" value="" style="endArrow=none;html=1;rounded=0;strokeWidth=2;fillColor=#f8cecc;strokeColor=#b85450;" edge="1" parent="1">
          <mxGeometry width="50" height="50" relative="1" as="geometry">
            <mxPoint x="0.35999999999999943" y="110" as="sourcePoint" />
            <mxPoint x="270" y="110" as="targetPoint" />
          </mxGeometry>
        </mxCell>
        <mxCell id="HKVD6gNdquyJxxmTIWlP-20" value="" style="endArrow=none;html=1;rounded=0;strokeWidth=2;fillColor=#f8cecc;strokeColor=#b85450;" edge="1" parent="1">
          <mxGeometry width="50" height="50" relative="1" as="geometry">
            <mxPoint x="270" y="520" as="sourcePoint" />
            <mxPoint x="270" y="110" as="targetPoint" />
          </mxGeometry>
        </mxCell>
        <mxCell id="HKVD6gNdquyJxxmTIWlP-21" value="" style="endArrow=none;html=1;rounded=0;strokeWidth=2;fillColor=#f8cecc;strokeColor=#b85450;" edge="1" parent="1">
          <mxGeometry width="50" height="50" relative="1" as="geometry">
            <mxPoint x="10.360000000000014" y="520" as="sourcePoint" />
            <mxPoint x="270" y="520" as="targetPoint" />
          </mxGeometry>
        </mxCell>
        <mxCell id="HKVD6gNdquyJxxmTIWlP-24" value="&lt;span style=&quot;font-size: 24px&quot;&gt;&amp;nbsp;class Item&lt;/span&gt;" style="text;html=1;align=center;verticalAlign=middle;resizable=0;points=[];autosize=1;strokeColor=none;fillColor=none;" vertex="1" parent="1">
          <mxGeometry x="30" y="530" width="130" height="20" as="geometry" />
        </mxCell>
        <mxCell id="HKVD6gNdquyJxxmTIWlP-25" value="" style="endArrow=none;html=1;rounded=0;fillColor=#ffe6cc;strokeColor=#d79b00;" edge="1" parent="1">
          <mxGeometry width="50" height="50" relative="1" as="geometry">
            <mxPoint x="3.75" y="560" as="sourcePoint" />
            <mxPoint x="203.75" y="560" as="targetPoint" />
          </mxGeometry>
        </mxCell>
        <mxCell id="HKVD6gNdquyJxxmTIWlP-26" value="" style="endArrow=none;html=1;rounded=0;fillColor=#ffe6cc;strokeColor=#d79b00;" edge="1" parent="1">
          <mxGeometry width="50" height="50" relative="1" as="geometry">
            <mxPoint x="200" y="520" as="sourcePoint" />
            <mxPoint x="200" y="560" as="targetPoint" />
          </mxGeometry>
        </mxCell>
        <mxCell id="HKVD6gNdquyJxxmTIWlP-27" value="&lt;span style=&quot;font-size: 12px&quot;&gt;public Item(string data, Item next)&lt;/span&gt;" style="text;html=1;align=center;verticalAlign=middle;resizable=0;points=[];autosize=1;strokeColor=none;fillColor=none;fontSize=24;" vertex="1" parent="1">
          <mxGeometry x="7.5" y="820" width="190" height="40" as="geometry" />
        </mxCell>
        <mxCell id="HKVD6gNdquyJxxmTIWlP-28" style="edgeStyle=orthogonalEdgeStyle;rounded=0;orthogonalLoop=1;jettySize=auto;html=1;exitX=0.5;exitY=1;exitDx=0;exitDy=0;fontSize=24;" edge="1" parent="1" source="HKVD6gNdquyJxxmTIWlP-29" target="HKVD6gNdquyJxxmTIWlP-31">
          <mxGeometry relative="1" as="geometry">
            <mxPoint x="111.60294117647061" y="960" as="targetPoint" />
          </mxGeometry>
        </mxCell>
        <mxCell id="HKVD6gNdquyJxxmTIWlP-29" value="Початок" style="ellipse;whiteSpace=wrap;html=1;fontSize=16;strokeWidth=1;" vertex="1" parent="1">
          <mxGeometry x="68.75000000000023" y="879.9999999999999" width="85" height="40" as="geometry" />
        </mxCell>
        <mxCell id="HKVD6gNdquyJxxmTIWlP-30" style="edgeStyle=orthogonalEdgeStyle;rounded=0;orthogonalLoop=1;jettySize=auto;html=1;exitX=0.5;exitY=1;exitDx=0;exitDy=0;fontSize=24;endArrow=none;endFill=0;" edge="1" parent="1" source="HKVD6gNdquyJxxmTIWlP-31" target="HKVD6gNdquyJxxmTIWlP-33">
          <mxGeometry relative="1" as="geometry">
            <mxPoint x="111.25" y="1040" as="targetPoint" />
          </mxGeometry>
        </mxCell>
        <mxCell id="HKVD6gNdquyJxxmTIWlP-31" value="&lt;span style=&quot;background-color: rgb(255 , 255 , 255) ; font-size: 12px&quot;&gt;&lt;div&gt;this.data = data;&lt;/div&gt;&lt;div&gt;&amp;nbsp;this.next = next;&lt;/div&gt;&lt;/span&gt;" style="shape=parallelogram;perimeter=parallelogramPerimeter;whiteSpace=wrap;html=1;fixedSize=1;fontSize=24;perimeterSpacing=0;sketch=0;rounded=1;" vertex="1" parent="1">
          <mxGeometry x="3.75" y="950" width="215" height="60" as="geometry" />
        </mxCell>
        <mxCell id="HKVD6gNdquyJxxmTIWlP-40" style="edgeStyle=orthogonalEdgeStyle;rounded=0;orthogonalLoop=1;jettySize=auto;html=1;exitX=0.5;exitY=1;exitDx=0;exitDy=0;strokeWidth=2;entryX=0.5;entryY=0;entryDx=0;entryDy=0;" edge="1" parent="1" source="HKVD6gNdquyJxxmTIWlP-33" target="HKVD6gNdquyJxxmTIWlP-36">
          <mxGeometry relative="1" as="geometry">
            <mxPoint x="110.67857142857144" y="1160" as="targetPoint" />
          </mxGeometry>
        </mxCell>
        <mxCell id="HKVD6gNdquyJxxmTIWlP-33" value="&lt;div&gt;&lt;span style=&quot;font-size: 12px&quot;&gt;&amp;nbsp;public string data;&lt;/span&gt;&lt;/div&gt;&lt;div&gt;&lt;span style=&quot;font-size: 12px&quot;&gt;&amp;nbsp;public Item next;&lt;/span&gt;&lt;/div&gt;" style="rounded=1;whiteSpace=wrap;html=1;sketch=0;fontSize=24;" vertex="1" parent="1">
          <mxGeometry x="11.25" y="1050" width="200" height="70" as="geometry" />
        </mxCell>
        <mxCell id="HKVD6gNdquyJxxmTIWlP-36" value="кінець" style="ellipse;whiteSpace=wrap;html=1;rounded=1;sketch=0;fontSize=12;" vertex="1" parent="1">
          <mxGeometry x="63.58000000000001" y="1160" width="95.35" height="30" as="geometry" />
        </mxCell>
        <mxCell id="HKVD6gNdquyJxxmTIWlP-37" value="" style="endArrow=none;html=1;rounded=0;fontSize=12;fillColor=#ffe6cc;strokeColor=#d79b00;strokeWidth=2;" edge="1" parent="1">
          <mxGeometry width="50" height="50" relative="1" as="geometry">
            <mxPoint x="270" y="1200" as="sourcePoint" />
            <mxPoint x="270" y="520" as="targetPoint" />
          </mxGeometry>
        </mxCell>
        <mxCell id="HKVD6gNdquyJxxmTIWlP-38" value="" style="endArrow=none;html=1;rounded=0;fontSize=12;fillColor=#ffe6cc;strokeColor=#d79b00;strokeWidth=2;" edge="1" parent="1">
          <mxGeometry width="50" height="50" relative="1" as="geometry">
            <mxPoint x="3.75" y="1200" as="sourcePoint" />
            <mxPoint x="263.75" y="1200" as="targetPoint" />
          </mxGeometry>
        </mxCell>
        <mxCell id="HKVD6gNdquyJxxmTIWlP-41" value="" style="endArrow=none;dashed=1;html=1;rounded=0;strokeWidth=2;fillColor=#ffe6cc;strokeColor=#d79b00;" edge="1" parent="1">
          <mxGeometry width="50" height="50" relative="1" as="geometry">
            <mxPoint x="6.25" y="810" as="sourcePoint" />
            <mxPoint x="266.25" y="810" as="targetPoint" />
          </mxGeometry>
        </mxCell>
        <mxCell id="HKVD6gNdquyJxxmTIWlP-42" style="edgeStyle=orthogonalEdgeStyle;rounded=0;orthogonalLoop=1;jettySize=auto;html=1;exitX=0.5;exitY=1;exitDx=0;exitDy=0;fontSize=24;" edge="1" parent="1" source="HKVD6gNdquyJxxmTIWlP-43" target="HKVD6gNdquyJxxmTIWlP-44">
          <mxGeometry relative="1" as="geometry">
            <mxPoint x="117.85294117647061" y="664.5" as="targetPoint" />
          </mxGeometry>
        </mxCell>
        <mxCell id="HKVD6gNdquyJxxmTIWlP-43" value="Початок" style="ellipse;whiteSpace=wrap;html=1;fontSize=16;strokeWidth=1;" vertex="1" parent="1">
          <mxGeometry x="75.00000000000023" y="584.4999999999999" width="85" height="40" as="geometry" />
        </mxCell>
        <mxCell id="HKVD6gNdquyJxxmTIWlP-45" style="edgeStyle=orthogonalEdgeStyle;rounded=0;orthogonalLoop=1;jettySize=auto;html=1;exitX=0.5;exitY=1;exitDx=0;exitDy=0;strokeWidth=2;entryX=0.5;entryY=0;entryDx=0;entryDy=0;" edge="1" parent="1" source="HKVD6gNdquyJxxmTIWlP-44" target="HKVD6gNdquyJxxmTIWlP-46">
          <mxGeometry relative="1" as="geometry">
            <mxPoint x="117.28571428571433" y="754.5" as="targetPoint" />
          </mxGeometry>
        </mxCell>
        <mxCell id="HKVD6gNdquyJxxmTIWlP-44" value="&lt;span style=&quot;background-color: rgb(255 , 255 , 255) ; font-size: 12px&quot;&gt;&lt;div&gt;this.data = data;&lt;/div&gt;&lt;div&gt;&amp;nbsp;this.next = next;&lt;/div&gt;&lt;/span&gt;" style="shape=parallelogram;perimeter=parallelogramPerimeter;whiteSpace=wrap;html=1;fixedSize=1;fontSize=24;perimeterSpacing=0;sketch=0;rounded=1;" vertex="1" parent="1">
          <mxGeometry x="10" y="654.5" width="215" height="60" as="geometry" />
        </mxCell>
        <mxCell id="HKVD6gNdquyJxxmTIWlP-46" value="кінець" style="ellipse;whiteSpace=wrap;html=1;rounded=1;sketch=0;fontSize=12;" vertex="1" parent="1">
          <mxGeometry x="69.83000000000001" y="764.5" width="95.35" height="30" as="geometry" />
        </mxCell>
      </root>
    </mxGraphModel>
  </diagram>
</mxfile>
